<svg focusable="false" version="1.1" id="Layer_1" data-name="Layer 1" xmlns="http://www.w3.org/2000/svg" xlink="http://www.w3.org/1999/xlink" x="0px" y="0px" width="180px" height="48.33px" viewBox="0 0 180 48.33" enable-background="new 0 0 180 48.33" space="preserve"><title>Eddie Bauer 100 Years Logo</title><path fill="#24272a" fill-rule="evenodd" d="M124.6,21.71a6,6,0,0,1-4,1.9c-.21,0-1.22-.06-1.22-.88,0-1.48,1.75-3.09,3.91-4.07a4.52,4.52,0,0,1,2-.45c1,0,1.1.56,1.1.73C126.36,19.38,126.23,20.07,124.6,21.71ZM27,15.89c.23,0,.19.19.07.25-1.9,1-8.5,4.4-11.91,5.83-.18.07-.27,0-.31-.17a2.73,2.73,0,0,1,0-.61A4.86,4.86,0,0,1,17,17.64a12.9,12.9,0,0,1,7.12-2A16.89,16.89,0,0,1,27,15.89ZM39.28,8.06c0,1.42-6,4.64-9.17,6.45a.91.91,0,0,1-.49.1c-1.55,0-4-1.17-4-2.87A3.77,3.77,0,0,1,26.9,9.2c1.67-1.51,4.74-2.56,8.37-2.55C36.74,6.65,39.28,6.92,39.28,8.06Zm1.63,13.42c-1.36.75-3.67,2.21-5.6,2.21a1.81,1.81,0,0,1-2-1.69c0-1.2,1.31-2.69,4-2.69a9,9,0,0,1,3.47.92c.32.17.28.19.32.6C41.16,21.05,41.2,21.32,40.91,21.48Zm8.3-6.65a31.68,31.68,0,0,1-4.53,4.06c-.07.05-.16.16-.27.16s-.17-.12-.13-.3A9.94,9.94,0,0,1,47,13.87c.71-.78,2.75-2.54,3.7-2.54.42,0,.49.24.49.4C51.22,12.27,50.52,13.43,49.21,14.83Zm3.86,7.33c0-1.07,1.33-2.91,4.38-2.91a7,7,0,0,1,1.34.14.43.43,0,0,1,.35.43c0,.28,0,.61,0,.94s.06.68.06,1-.34.62-.53.75A7,7,0,0,1,55,23.91,1.9,1.9,0,0,1,53.07,22.16Zm13-6.95a31.26,31.26,0,0,1-3.53,4.17.54.54,0,0,1-.32.2c-.17,0-.14-.21-.14-.35a11.8,11.8,0,0,1,1.79-4.73c1.45-2.36,3-3.37,3.51-3.37a.47.47,0,0,1,.43.48C67.76,12.62,66.48,14.62,66,15.21ZM77.4,22.27a.36.36,0,0,1-.51-.11,2.15,2.15,0,0,1-.33-1.28c0-2,1.87-4,3.53-4a1,1,0,0,1,1.06,1C81.15,19.59,78.52,21.56,77.4,22.27Zm24.06-8.61a28.23,28.23,0,0,1-4.83,6.93c-.36.37-2.72,2.75-3.82,2.75a.57.57,0,0,1-.57-.61A8.33,8.33,0,0,1,93.9,20a48.34,48.34,0,0,1,7.24-6.5C101.42,13.29,101.52,13.54,101.46,13.66Zm15.44-5c0,2.43-4.24,5.14-6.55,5.83a.67.67,0,0,1-.57,0,8.05,8.05,0,0,0-3.45-.8,5.93,5.93,0,0,0-2.76.64c-.16.08-.18,0-.11-.18a14,14,0,0,0,.78-2.37.64.64,0,0,1,.35-.46c2.64-1.59,7.7-3.88,10.58-3.88C116.62,7.39,116.9,8.14,116.9,8.63ZM109.9,21c0,.75-2.17,6.16-5.63,6.14-2.48,0-3.59-1.22-3.59-2.28s1-1.61,1.61-1.93a28.62,28.62,0,0,1,7.17-2.19C109.71,20.65,109.9,20.64,109.9,21Zm39.56,1.53a.46.46,0,0,1-.29.11c-.48,0-.64-1.12-.64-1.4a4.31,4.31,0,0,1,3.37-3.85c.46,0,.55.55.55.78C152.45,19.85,150.47,21.73,149.46,22.48ZM120,18.15c-.52,0-4.2,0-6.07.16-.21,0-.37,0-.44-.2a4.81,4.81,0,0,0-1.36-2c-.13-.12-.06-.22.12-.28,2.91-.87,8.5-3.56,8.51-7.45,0-2-1.72-3.16-4.45-3.16-4.34,0-9.88,3.06-11.55,3.94-.19.1-.36.15-.42-.15A2.49,2.49,0,0,0,101.8,7c-4.21,0-9.65,6.29-11.3,8.11-3.14,3.48-7.26,9-10.74,9a2.25,2.25,0,0,1-1.21-.31c-.1-.09-.11-.22.07-.34C83.25,20.25,83,17.88,83,17.49A2.75,2.75,0,0,0,80,14.74c-2.88,0-5.92,3.43-5.93,6.41a4.5,4.5,0,0,0,.54,2.22.29.29,0,0,1-.17.43,5.74,5.74,0,0,1-1.93.42,2,2,0,0,1-2.3-1.91,4.6,4.6,0,0,1,1.91-3,1.11,1.11,0,0,0,.64-1c0-.57-.76-1.11-1.43-1.11a2.47,2.47,0,0,0-1.64.91,7.16,7.16,0,0,0-1.64,2.49,2.05,2.05,0,0,1-.37.72c-.61.76-1.87,2.19-3.5,2.19a2.11,2.11,0,0,1-2-1.55.4.4,0,0,1,.14-.45C66,18.64,70.25,13,70.25,10.39A1.25,1.25,0,0,0,69,9c-1.94,0-5.12,2.21-7.1,4.94a16.79,16.79,0,0,0-2,3.63c-.12.27-.24.26-.42.24a19.34,19.34,0,0,0-3-.3c-4.67,0-6.78,2.77-6.78,4.88a.37.37,0,0,1-.31.38,5.89,5.89,0,0,1-2.07.42,2.55,2.55,0,0,1-2.66-1.62A.41.41,0,0,1,44.7,21a49.36,49.36,0,0,0,5.71-4.78c2-2,3.6-4.09,3.6-5.33,0-.43-.21-1.23-1.55-1.23-3.77,0-9.45,5-10.86,8.78-.07.18-.16.25-.39.14A14,14,0,0,0,36,17.31c-3.86,0-6.17,2.25-6.43,4.52a.76.76,0,0,1-.38.62,19.79,19.79,0,0,1-9.07,3c-1.94,0-3.5-.45-4.4-1.55a.21.21,0,0,1,.06-.35c9.1-4.32,16.8-8,24.37-13.11,1.26-.85,2.52-1.7,2.52-3.09,0-2.43-5.24-2.7-6.89-2.7-6.27,0-15,3-15,6.55,0,1.56,1.46,2.42,2.46,2.79.13,0,.1.12,0,.12h-1C10.61,14.08,8.4,19.77,8.39,22a5,5,0,0,0,.75,2.64.14.14,0,0,1-.06.22c-.75.39-8.18,3.7-8.43,3.82-.48.24-.79.62-.59,1.12a.85.85,0,0,0,1.09.44c.32-.1,8.94-4,9.06-4a.29.29,0,0,1,.36,0,9.86,9.86,0,0,0,6.52,2.09c4.34,0,8.89-1.94,12.32-3.79.46-.24.61-.2.68-.07a3.56,3.56,0,0,0,3.14,2c2.53,0,6.26-2.16,8.19-3.25a.39.39,0,0,1,.51.08,4.69,4.69,0,0,0,4.19,2,9.54,9.54,0,0,0,3.5-.7.43.43,0,0,1,.58.1,3.78,3.78,0,0,0,3.06,1.44,12,12,0,0,0,6.11-2.18A.47.47,0,0,1,60,24a3.87,3.87,0,0,0,3.56,2c2.07,0,3.63-1.73,4-2a.32.32,0,0,1,.53.12,3.72,3.72,0,0,0,3.75,2.08,10.11,10.11,0,0,0,3.72-1,.64.64,0,0,1,.63,0,5.21,5.21,0,0,0,3,.9c3.07,0,5.44-2.23,7.46-4.22,1.11-1.09,1.29-1.38,3.41-3.76a63.11,63.11,0,0,1,5.7-5.86c2.24-2,4.25-3.18,5.4-3.18a1.11,1.11,0,0,1,1.21,1.2.43.43,0,0,1-.23.44,47.45,47.45,0,0,0-7.8,6.12c-2.8,2.76-5.39,6-5.39,8.09,0,1.26.7,1.64,1.66,1.65,2.28,0,5.28-2.41,7.65-4.92a35.15,35.15,0,0,0,4.15-5.46c.12-.2.2-.34.42-.08.62.75,2.11.94,3.27.94a14.53,14.53,0,0,0,2.69-.28.57.57,0,0,1,.7.28,3.11,3.11,0,0,1,.56,1.4c0,.2,0,.34-.37.4a43.53,43.53,0,0,0-10,2.87c-1.53.68-2.35,1.71-2.35,2.73,0,2.07,2.4,4.75,6.57,4.76a9.21,9.21,0,0,0,4.93-1.34c2.86-1.52,5-4.37,5.11-7.31,0-.31.1-.49.48-.5s1.56-.06,2-.06,1.32,0,1.56,0,.32,0,.18.23a5.83,5.83,0,0,0-1.49,3.32c0,1.25.79,2.7,3.08,2.7,2.57,0,4.89-1.81,5.9-2.6.14-.11.51-.29.63,0a2.61,2.61,0,0,0,2.42,2,6.42,6.42,0,0,0,3.88-1.8c.16-.12.56-.38.75,0A3.29,3.29,0,0,0,136.07,26c2.25,0,4-2,4.25-2.2s.56-.38.76,0a4.52,4.52,0,0,0,4.17,2.4,8.83,8.83,0,0,0,2.77-.6.92.92,0,0,1,.55,0,6.19,6.19,0,0,0,2.49.51c5.54,0,8.6-5.64,9.41-6.79.16-.23.2-.33.41-.27a4.55,4.55,0,0,1,1,.49.55.55,0,0,1,.22.59,13,13,0,0,0-1,3,1.56,1.56,0,0,0,.34,1c.15.18,1.51,2.15,2.74,2.15a5.19,5.19,0,0,0,1.85-.5c2.31-1,6.8-3.61,9.9-5.11A6.34,6.34,0,0,1,178,20a.62.62,0,0,1,.63.64,6.06,6.06,0,0,1-.25.89c-.07.19,0,.35.15.35a.46.46,0,0,0,.34-.18A3.64,3.64,0,0,0,180,19a2,2,0,0,0-2.08-2.07A7.51,7.51,0,0,0,174.41,18c-1.18.6-7.83,4.57-8.19,4.77a4.22,4.22,0,0,1-1.54.61.8.8,0,0,1-.89-.78,1.87,1.87,0,0,1,.19-.74c.17-.47,1.13-1.87,1.13-2.86a1.48,1.48,0,0,0-.65-1.25,15,15,0,0,0-1.9-1c-1.64-.88-1.53-1.22-2.31-1.22a2.2,2.2,0,0,0-2,1.95,1.44,1.44,0,0,0,.29.9.85.85,0,0,1,.16.43,1.34,1.34,0,0,1-.14.52c-.9,1.53-3.79,4.56-6.78,4.55-.26,0-.4,0-.4-.16s.08-.16.18-.23c1.07-.81,3.49-3.15,3.5-5.21a3,3,0,0,0-.39-1.26c-.24-.43-.91-1.64-2-1.64a7.59,7.59,0,0,0-4.24,1.92,6.48,6.48,0,0,0-2.42,4.51,4,4,0,0,0,.47,1.84.33.33,0,0,1-.17.55,5.73,5.73,0,0,1-1.17.17A2.07,2.07,0,0,1,143,22.25a7.47,7.47,0,0,1,1.44-3.83.5.5,0,0,0-.27-.81,3.12,3.12,0,0,0-1-.16,1.41,1.41,0,0,0-1.26.58c-.46.68-1.22,2.47-1.48,2.92-.35.6-1.85,2.58-3.85,2.57a1.34,1.34,0,0,1-1.44-1.31,6.64,6.64,0,0,1,1.75-3.61.77.77,0,0,0,.29-.6c0-.43-.55-.67-1.27-.67a1.54,1.54,0,0,0-1.34.61c-.81,1-1.4,2-2.17,3a4.12,4.12,0,0,1-2.87,1.83c-1,0-1.74-.61-1.74-1.2a1.38,1.38,0,0,1,.2-.69c.2-.32.46-.77.76-1.28a2.84,2.84,0,0,0,.59-1.51c0-.81-.78-1.9-3.26-1.91a11,11,0,0,0-5.3,1.7A1,1,0,0,1,120,18.15Zm-45-4.63c.39,0,.68-.28.68-.86a5.59,5.59,0,0,0-1.28-2.6,1.47,1.47,0,0,0-.93-.43.81.81,0,0,0-.87.78A.8.8,0,0,0,73,11a4.92,4.92,0,0,1,1.37,1.89C74.45,13.13,74.59,13.52,75.05,13.52Z" transform="translate(0 -4.64)"></path><path fill="#24272a" fill-rule="evenodd" d="M166.66,17.62a1,1,0,1,1,1-1A1,1,0,0,1,166.66,17.62Zm0-1.91a.87.87,0,1,0,.87.87A.85.85,0,0,0,166.66,15.71Zm.23,1,.23.46h-.22l-.22-.44h-.23v.44h-.19V16h.5a.33.33,0,0,1,.37.34A.32.32,0,0,1,166.89,16.67Zm-.14-.49h-.3v.32h.3c.11,0,.19-.05.19-.16S166.86,16.18,166.75,16.18Z" transform="translate(0 -4.64)"></path></svg>