<svg width="50" height="28" viewBox="0 0 50 28" fill="none" xmlns="http://www.w3.org/2000/svg"><ellipse rx="2.51106" ry="2.51106" transform="matrix(1 0 0.00702339 0.999975 30.3192 8.11427)" fill="#121213"></ellipse><ellipse rx="2.51106" ry="2.51106" transform="matrix(1 0 0.00702338 0.999975 35.8993 2.76515)" fill="#121213"></ellipse><ellipse rx="2.51106" ry="2.51106" transform="matrix(-4.37114e-08 1 -0.999975 0.00702335 30.3015 18.8324)" fill="#121213"></ellipse><ellipse rx="2.51106" ry="2.51106" transform="matrix(-4.37114e-08 1 -0.999975 0.00702335 35.8816 24.5453)" fill="#121213"></ellipse><ellipse rx="2.51106" ry="2.51106" transform="matrix(-4.37114e-08 1 -0.999975 0.00702335 24.6233 13.4833)" fill="#121213"></ellipse><ellipse rx="2.51106" ry="2.51106" transform="matrix(-1 0 -0.00702339 0.999975 19.1588 8.11427)" fill="#121213"></ellipse><ellipse rx="2.51106" ry="2.51106" transform="matrix(-1 0 -0.00702339 0.999975 13.5787 2.76515)" fill="#121213"></ellipse><ellipse rx="2.51106" ry="2.51106" transform="matrix(4.37113e-08 1 0.999975 0.00702335 19.1765 18.8324)" fill="#121213"></ellipse><ellipse rx="2.51106" ry="2.51106" transform="matrix(4.37114e-08 1 0.999975 0.00702335 13.596 24.5453)" fill="#121213"></ellipse></svg>